<svg width="136" height="132" viewBox="0 0 136 132" fill="none" xmlns="http://www.w3.org/2000/svg">
<g filter="url(#filter0_d_19_50)">
<path d="M79.3369 60.5204C82.7026 60.5204 85.4286 63.2005 85.4286 66.5072C85.4286 69.8119 82.7026 72.4921 79.3369 72.4921C75.9731 72.4921 73.2451 69.8119 73.2451 66.5072C73.2451 63.2005 75.9731 60.5204 79.3369 60.5204ZM64.319 63.9541C65.7932 63.9541 66.9899 65.1298 66.9899 66.5782C66.9899 68.0246 65.7932 69.2022 64.319 69.2022H52.6709C51.1967 69.2022 50 68.0246 50 66.5782C50 65.1298 51.1967 63.9541 52.6709 63.9541H64.319ZM56.0917 41C59.4574 41 62.1834 43.6801 62.1834 46.9849C62.1834 50.2915 59.4574 52.9717 56.0917 52.9717C52.728 52.9717 50 50.2915 50 46.9849C50 43.6801 52.728 41 56.0917 41ZM82.7596 44.3627C84.2319 44.3627 85.4286 45.5385 85.4286 46.9849C85.4286 48.4332 84.2319 49.6089 82.7596 49.6089H71.1116C69.6374 49.6089 68.4407 48.4332 68.4407 46.9849C68.4407 45.5385 69.6374 44.3627 71.1116 44.3627H82.7596Z" fill="#403DD5"/>
</g>
<defs>
<filter id="filter0_d_19_50" x="0" y="0" width="135.429" height="131.492" filterUnits="userSpaceOnUse" color-interpolation-filters="sRGB">
<feFlood flood-opacity="0" result="BackgroundImageFix"/>
<feColorMatrix in="SourceAlpha" type="matrix" values="0 0 0 0 0 0 0 0 0 0 0 0 0 0 0 0 0 0 127 0" result="hardAlpha"/>
<feOffset dy="9"/>
<feGaussianBlur stdDeviation="25"/>
<feComposite in2="hardAlpha" operator="out"/>
<feColorMatrix type="matrix" values="0 0 0 0 0.176556 0 0 0 0 0.171146 0 0 0 0 0.441667 0 0 0 1 0"/>
<feBlend mode="normal" in2="BackgroundImageFix" result="effect1_dropShadow_19_50"/>
<feBlend mode="normal" in="SourceGraphic" in2="effect1_dropShadow_19_50" result="shape"/>
</filter>
</defs>
</svg>
